<mxfile host="Electron" agent="Mozilla/5.0 (Windows NT 10.0; Win64; x64) AppleWebKit/537.36 (KHTML, like Gecko) draw.io/26.0.9 Chrome/128.0.6613.186 Electron/32.2.5 Safari/537.36" version="26.0.9">
  <diagram name="PÃ¡gina-1" id="UKcnGy1HemfAQh9pXnnG">
    <mxGraphModel dx="880" dy="1701" grid="1" gridSize="10" guides="1" tooltips="1" connect="1" arrows="1" fold="1" page="1" pageScale="1" pageWidth="827" pageHeight="1169" math="0" shadow="0">
      <root>
        <mxCell id="0" />
        <mxCell id="1" parent="0" />
        <mxCell id="02EVW0HNfQFi5CUWO1LC-1" value="para homem (72.7*h)&amp;nbsp;&lt;div&gt;para mulheres (62.1*h)&amp;nbsp;&lt;/div&gt;" style="text;html=1;align=center;verticalAlign=middle;resizable=0;points=[];autosize=1;strokeColor=none;fillColor=none;" vertex="1" parent="1">
          <mxGeometry x="595" y="-497" width="150" height="40" as="geometry" />
        </mxCell>
        <mxCell id="02EVW0HNfQFi5CUWO1LC-3" value="inicio" style="ellipse;whiteSpace=wrap;html=1;" vertex="1" parent="1">
          <mxGeometry x="324" y="-497" width="90" height="50" as="geometry" />
        </mxCell>
        <mxCell id="02EVW0HNfQFi5CUWO1LC-4" value="leia altura" style="shape=parallelogram;perimeter=parallelogramPerimeter;whiteSpace=wrap;html=1;fixedSize=1;" vertex="1" parent="1">
          <mxGeometry x="313.5" y="-420" width="111" height="40" as="geometry" />
        </mxCell>
        <mxCell id="02EVW0HNfQFi5CUWO1LC-5" value="" style="endArrow=classic;html=1;rounded=0;exitX=0.5;exitY=1;exitDx=0;exitDy=0;entryX=0.5;entryY=0;entryDx=0;entryDy=0;" edge="1" parent="1" source="02EVW0HNfQFi5CUWO1LC-3" target="02EVW0HNfQFi5CUWO1LC-4">
          <mxGeometry width="50" height="50" relative="1" as="geometry">
            <mxPoint x="430" y="-230" as="sourcePoint" />
            <mxPoint x="480" y="-280" as="targetPoint" />
          </mxGeometry>
        </mxCell>
        <mxCell id="02EVW0HNfQFi5CUWO1LC-6" value="&lt;div&gt;leia&lt;/div&gt;masc / fem" style="shape=parallelogram;perimeter=parallelogramPerimeter;whiteSpace=wrap;html=1;fixedSize=1;" vertex="1" parent="1">
          <mxGeometry x="304" y="-300" width="110" height="40" as="geometry" />
        </mxCell>
        <mxCell id="02EVW0HNfQFi5CUWO1LC-9" value="if&lt;div&gt;fem&lt;/div&gt;" style="rhombus;whiteSpace=wrap;html=1;" vertex="1" parent="1">
          <mxGeometry x="497.5" y="-320" width="80" height="80" as="geometry" />
        </mxCell>
        <mxCell id="02EVW0HNfQFi5CUWO1LC-10" value="if&lt;div&gt;masc&lt;/div&gt;" style="rhombus;whiteSpace=wrap;html=1;" vertex="1" parent="1">
          <mxGeometry x="160" y="-320" width="80" height="80" as="geometry" />
        </mxCell>
        <mxCell id="02EVW0HNfQFi5CUWO1LC-11" value="" style="endArrow=classic;html=1;rounded=0;exitX=0.5;exitY=1;exitDx=0;exitDy=0;entryX=0.5;entryY=0;entryDx=0;entryDy=0;" edge="1" parent="1" source="02EVW0HNfQFi5CUWO1LC-10">
          <mxGeometry width="50" height="50" relative="1" as="geometry">
            <mxPoint x="430" y="-230" as="sourcePoint" />
            <mxPoint x="200" y="-200" as="targetPoint" />
          </mxGeometry>
        </mxCell>
        <mxCell id="02EVW0HNfQFi5CUWO1LC-13" value="leia peso" style="shape=parallelogram;perimeter=parallelogramPerimeter;whiteSpace=wrap;html=1;fixedSize=1;" vertex="1" parent="1">
          <mxGeometry x="313.5" y="-360" width="110.5" height="40" as="geometry" />
        </mxCell>
        <mxCell id="02EVW0HNfQFi5CUWO1LC-14" value="" style="endArrow=classic;html=1;rounded=0;exitX=0.5;exitY=1;exitDx=0;exitDy=0;entryX=0.5;entryY=0;entryDx=0;entryDy=0;" edge="1" parent="1" source="02EVW0HNfQFi5CUWO1LC-4" target="02EVW0HNfQFi5CUWO1LC-13">
          <mxGeometry width="50" height="50" relative="1" as="geometry">
            <mxPoint x="430" y="-230" as="sourcePoint" />
            <mxPoint x="480" y="-280" as="targetPoint" />
          </mxGeometry>
        </mxCell>
        <mxCell id="02EVW0HNfQFi5CUWO1LC-15" value="" style="endArrow=classic;html=1;rounded=0;exitX=0.5;exitY=1;exitDx=0;exitDy=0;entryX=0.591;entryY=0;entryDx=0;entryDy=0;entryPerimeter=0;" edge="1" parent="1" source="02EVW0HNfQFi5CUWO1LC-13" target="02EVW0HNfQFi5CUWO1LC-6">
          <mxGeometry width="50" height="50" relative="1" as="geometry">
            <mxPoint x="430" y="-230" as="sourcePoint" />
            <mxPoint x="480" y="-280" as="targetPoint" />
          </mxGeometry>
        </mxCell>
        <mxCell id="02EVW0HNfQFi5CUWO1LC-16" value="" style="endArrow=classic;html=1;rounded=0;exitX=0;exitY=0.5;exitDx=0;exitDy=0;entryX=1;entryY=0.5;entryDx=0;entryDy=0;" edge="1" parent="1" source="02EVW0HNfQFi5CUWO1LC-6" target="02EVW0HNfQFi5CUWO1LC-10">
          <mxGeometry width="50" height="50" relative="1" as="geometry">
            <mxPoint x="430" y="-230" as="sourcePoint" />
            <mxPoint x="480" y="-280" as="targetPoint" />
          </mxGeometry>
        </mxCell>
        <mxCell id="02EVW0HNfQFi5CUWO1LC-17" value="pesoideal = (72.7*altura) - 44.7" style="shape=document;whiteSpace=wrap;html=1;boundedLbl=1;" vertex="1" parent="1">
          <mxGeometry x="120" y="-200" width="170" height="80" as="geometry" />
        </mxCell>
        <mxCell id="02EVW0HNfQFi5CUWO1LC-18" value="" style="endArrow=classic;html=1;rounded=0;exitX=1;exitY=0.5;exitDx=0;exitDy=0;entryX=0;entryY=0.5;entryDx=0;entryDy=0;" edge="1" parent="1" source="02EVW0HNfQFi5CUWO1LC-6" target="02EVW0HNfQFi5CUWO1LC-9">
          <mxGeometry width="50" height="50" relative="1" as="geometry">
            <mxPoint x="430" y="-130" as="sourcePoint" />
            <mxPoint x="480" y="-180" as="targetPoint" />
          </mxGeometry>
        </mxCell>
        <mxCell id="02EVW0HNfQFi5CUWO1LC-22" value="pesoideal = (62.1*altura) - 44.7" style="shape=document;whiteSpace=wrap;html=1;boundedLbl=1;" vertex="1" parent="1">
          <mxGeometry x="455" y="-200" width="165" height="80" as="geometry" />
        </mxCell>
        <mxCell id="02EVW0HNfQFi5CUWO1LC-23" value="" style="endArrow=classic;html=1;rounded=0;exitX=0.5;exitY=1;exitDx=0;exitDy=0;entryX=0.5;entryY=0;entryDx=0;entryDy=0;" edge="1" parent="1" source="02EVW0HNfQFi5CUWO1LC-9" target="02EVW0HNfQFi5CUWO1LC-22">
          <mxGeometry width="50" height="50" relative="1" as="geometry">
            <mxPoint x="430" y="-130" as="sourcePoint" />
            <mxPoint x="480" y="-180" as="targetPoint" />
          </mxGeometry>
        </mxCell>
        <mxCell id="02EVW0HNfQFi5CUWO1LC-24" value="fim" style="ellipse;whiteSpace=wrap;html=1;" vertex="1" parent="1">
          <mxGeometry x="332.5" y="-200" width="81" height="60" as="geometry" />
        </mxCell>
        <mxCell id="02EVW0HNfQFi5CUWO1LC-25" value="" style="endArrow=classic;html=1;rounded=0;exitX=0;exitY=0.35;exitDx=0;exitDy=0;exitPerimeter=0;entryX=1;entryY=0.5;entryDx=0;entryDy=0;" edge="1" parent="1" source="02EVW0HNfQFi5CUWO1LC-22" target="02EVW0HNfQFi5CUWO1LC-24">
          <mxGeometry width="50" height="50" relative="1" as="geometry">
            <mxPoint x="430" y="-230" as="sourcePoint" />
            <mxPoint x="480" y="-280" as="targetPoint" />
          </mxGeometry>
        </mxCell>
        <mxCell id="02EVW0HNfQFi5CUWO1LC-26" value="" style="endArrow=classic;html=1;rounded=0;exitX=0.993;exitY=0.375;exitDx=0;exitDy=0;exitPerimeter=0;entryX=0;entryY=0.5;entryDx=0;entryDy=0;" edge="1" parent="1" source="02EVW0HNfQFi5CUWO1LC-17" target="02EVW0HNfQFi5CUWO1LC-24">
          <mxGeometry width="50" height="50" relative="1" as="geometry">
            <mxPoint x="430" y="-230" as="sourcePoint" />
            <mxPoint x="480" y="-280" as="targetPoint" />
          </mxGeometry>
        </mxCell>
      </root>
    </mxGraphModel>
  </diagram>
</mxfile>
